#!OML:ASF F:\VICON\USERDATA\INSTALL\rory3\rory3.ASF
:FULLY-SPECIFIED
:DEGREES
73
root -0.18728331334560377 17.454460584405687 40.71898708046768 3.3923767260455953 2.3644516996872498 -0.24185554700115786
lfemur 4.869292986142421 -2.494406216975722 -26.322458499607883
ltibia 38.914750141467515
lfoot -10.426478912298217 -1.2906213282340318
ltoes -22.752159022028923
rfemur -46.53808262719379 -5.9274018932679855 23.029254998612597
rtibia 99.21151185068638
rfoot 2.5731245067310797 -5.123277889068089
rtoes 4.61617303927836
lowerback 15.696758523775685 -0.40955767731837067 -2.16425399587217
upperback -1.030924311890374 -0.8702350132722341 1.018120039268524
thorax -9.903698432472881 -0.24544300145211495 3.219969681371711
lowerneck -21.813632207024302 -2.518733652702193 -1.9270999248030363
upperneck 14.633408659050428 -3.429673282713558 2.9331494305432013
head 8.048464355522357 -1.3914506658808947 0.8485350755921173
lclavicle -8.648001002326541e-16 2.4100249587703555e-15
lhumerus -32.883387600650565 -16.683687650862872 97.12308686350748
lradius 114.83188755533132
lwrist 36.344714740106994
lhand -25.40855126229463 1.286374959157419
lfingers 7.12502
lthumb 1.1169223605237875 31.286279624089293
rclavicle -8.648001002326541e-16 2.4100249587703555e-15
rhumerus -58.3795873103668 6.724397416141661 -100.75959335202897
rradius 106.1696436065118
rwrist -13.838833197206206
rhand -14.540552080891763 38.61179420821545
rfingers 7.12502
rthumb 11.609011424519595 9.320457598419564
74
root -0.1441471369485296 17.699436444521606 42.84600262547963 3.780060747359453 1.5560135515697402 -0.5336658995204902
lfemur 9.56099756204805 -1.8634772698746946 -25.67339625073934
ltibia 35.91403970694046
lfoot -2.9220479020016334 -4.0761308387767645
ltoes -25.05286970098569
rfemur -46.91313465634756 -4.161764914331778 24.187047679745735
rtibia 91.35303278538498
rfoot 2.5105071444020575 -4.1764493909042795
rtoes 2.6265882422571822
lowerback 15.194159893147315 -0.6607778366403447 -1.8715872101082731
upperback -1.3005787953868801 -1.11573252357539 1.550421921774005
thorax -9.781133183916658 -0.3597806783760652 3.8220539424640823
lowerneck -21.514465222055176 -2.116171033291555 -2.1576494445402385
upperneck 15.039188792832721 -2.792591783759479 2.7943011652427465
head 8.111034070344376 -1.1179088114601334 0.9030008324851587
lclavicle 4.0571911717450216e-18 3.040406767690322e-15
lhumerus -31.915930953619576 -15.972361570373376 96.49359799467805
lradius 117.29118929262661
lwrist 37.329416520278826
lhand -25.132655653381736 1.035811675140892
lfingers 7.12502
lthumb 1.383366310239139 31.02826583154521
rclavicle 4.0571911717450216e-18 3.040406767690322e-15
rhumerus -60.108444620538975 6.960078479320275 -99.87654909443151
rradius 107.4165653722502
rwrist -14.129632282612707
rhand -14.211640433306822 38.730029227788705
rfingers 7.12502
rthumb 11.926505470095767 9.417794459677195
75
root -0.09086175694757709 17.9266950007928 43.69611514822736 4.130658803113093 0.5978781805565945 -0.9169686176148897
lfemur 13.323928032649784 -1.8937738449571826 -25.476109907710942
ltibia 31.62287675000099
lfoot 4.564417829970899 -7.030364700869198
ltoes -25.61048158866337
rfemur -47.61397212270171 -2.554501074276348 24.85292634465475
rtibia 80.72703146772972
rfoot 2.428830371587136 -3.332560573906419
rtoes -1.654084433852844
lowerback 14.56276144135202 -0.9884211627150796 -1.6412141178057953
upperback -1.6408795889494998 -1.4681387719773906 1.9730902404026716
thorax -9.676946114586338 -0.5245108572247744 4.137179591714085
lowerneck -21.28087111941254 -1.8280570565821692 -2.3382509491014014
upperneck 15.383588879405568 -2.332096055751569 2.5856159589379173
head 8.166926213180723 -0.927808622807816 0.906589525373335
lclavicle -3.470342096273487e-16 2.7860423951397556e-15
lhumerus -31.709815096196525 -16.31495926492128 95.75263573675333
lradius 119.16205522288293
lwrist 37.277617552959
lhand -24.7980550195477 1.2249231572465284
lfingers 7.12502
lthumb 1.706496588063379 31.205912794940794
rclavicle -3.470342096273487e-16 2.7860423951397556e-15
rhumerus -62.41573745543865 6.457657337898942 -98.98405715286107
rradius 108.37558575588325
rwrist -13.986860400843003
rhand -14.17412570095479 38.79553787224362
rfingers 7.12502
rthumb 11.962696316117466 9.4201926628594
76
root -0.06272484309006046 18.109330564215732 43.93535344859331 4.376728795861947 -0.4645137343076239 -1.2252504812376717
lfemur 15.637452195810154 -2.1861365882446897 -25.51701583310352
ltibia 28.257827054551676
lfoot 11.167456416461189 -9.473896116350858
ltoes -23.856990771355786
rfemur -47.41214921385473 -0.9809510966251973 25.309018839480963
rtibia 69.09753601622815
rfoot 2.5659850589745923 -2.490624585991147
rtoes -5.3581855397651506
lowerback 13.974353255070822 -1.1555641245759407 -1.5224425671208384
upperback -1.9804065300583928 -1.6307773283930977 2.2643708362971626
thorax -9.61774423574932 -0.5999597454005118 4.268711498519369
lowerneck -20.967460324353524 -1.6867850982453052 -2.6025158788406233
upperneck 15.678427147040912 -2.0716242743739715 2.492231482366794
head 8.210173508463964 -0.8260236780929584 0.9458129146451677
lclavicle -1.0462576631983705e-15 2.279814507909259e-15
lhumerus -32.313391809464036 -16.86994254541558 94.96437661072247
lradius 119.80074025880144
lwrist 36.660401969341144
lhand -24.51796213011193 0.8311270723265634
lfingers 7.12502
lthumb 1.9770392205036291 30.809594583784644
rclavicle -1.0462576631983705e-15 2.279814507909259e-15
rhumerus -64.34911519263343 5.389279615037475 -97.86303540975717
rradius 109.00015041288559
rwrist -13.860267197098995
rhand -14.216533206510137 38.796863495958135
rfingers 7.12502
rthumb 11.921897950816227 9.420167710354823
77
root -0.016255471812995415 18.270482220830523 45.61240368428442 4.657049058905199 -1.0685978935760443 -1.1721345868043114
lfemur 18.396312191352507 -2.8303764923724586 -25.713237997819714
ltibia 27.3890653973992
lfoot 16.827212153729437 -11.047990676960012
ltoes -20.446608104884703
rfemur -46.13115571317053 0.19157584913660652 25.66512435886351
rtibia 59.05936068536249
rfoot 3.7234573147716383 -1.890909304925592
rtoes -8.173534244049431
lowerback 13.558920747962711 -1.3165555882581272 -1.358768061085131
upperback -2.2027234816462458 -1.8069621118017172 2.4687904326838437
thorax -9.513382068934407 -0.6845347419094466 4.487151363084148
lowerneck -20.683231431213333 -1.509833783893074 -2.72920485829993
upperneck 15.91330666894536 -1.769260577674311 2.3804943266666823
head 8.249371899511734 -0.7079283573349946 0.9588250286346124
lclavicle -5.788843356398903e-16 2.61872935484717e-15
lhumerus -32.12885499030128 -17.537145582069147 94.4455735707473
lradius 120.09861059239222
lwrist 35.90639397418895
lhand -24.102786925542546 0.7412736121586736
lfingers 7.12502
lthumb 2.378029133466791 30.719118953893688
rclavicle -5.788843356398903e-16 2.61872935484717e-15
rhumerus -65.77426990631604 4.337817638718612 -96.6003646892621
rradius 109.88840096317809
rwrist -13.400493414479921
rhand -14.313193586846182 38.89380624792905
rfingers 7.12502
rthumb 11.828650446450492 9.480555506818348
